<svg id="Layer_1" data-name="Layer 1" xmlns="http://www.w3.org/2000/svg" viewBox="0 0 820.4 702.02"><defs><style>.cls-1{fill:#a7eae0;}.cls-2{fill:#2e5657;}.cls-3{fill:#427a79;}.cls-4{fill:#32ccc1;}.cls-5{fill:#1a8a86;}</style></defs><circle class="cls-1" cx="410.2" cy="344.17" r="200.84"/><path class="cls-2" d="M279.18,268c2.81-5.49,8.55-7.34,14-4.53l11.89,6.1c5.49,2.81,7.34,8.55,4.52,14l-7.5,14.64,16.6,8.5-4.83,9.42-47-24.13Zm20.36,13.4a2.25,2.25,0,0,0-1.09-3.36l-8.23-4.22a2.24,2.24,0,0,0-3.36,1.08l-6.3,12.29,12.68,6.5Z"/><path class="cls-2" d="M328.74,217.65l6.07,7.93-19.07,14.6,6.61,8.62L337.8,237l6.07,7.93-15.45,11.82,7.32,9.56L354.8,251.7l6.07,7.93-27.45,21-32.14-42Z"/><path class="cls-2" d="M378.89,251.14l-10.73,2.14,6.41-55.18,12.1-2.41,27,48.54-11.17,2.22-5.69-11L380,238.79ZM381,228.42l11.09-2.2-9.25-17.93Z"/><path class="cls-2" d="M459.08,213.33a2.25,2.25,0,0,0-1.75-3.07l-11.05-3a2.24,2.24,0,0,0-3.06,1.75l-7.5,27.48a2.25,2.25,0,0,0,1.75,3.07l11,3a2.25,2.25,0,0,0,3.07-1.75l1.7-6.24,10.2,2.79-2.24,8.21c-1.63,6-6.85,8.94-12.8,7.32l-16.15-4.41c-5.95-1.62-8.94-6.85-7.32-12.8l8.58-31.44c1.62-6,6.85-8.94,12.8-7.32l16.15,4.4c5.95,1.63,8.93,6.86,7.31,12.8l-2.24,8.22-10.2-2.78Z"/><path class="cls-2" d="M501.83,223l7.8,7.14-14.07,15.39L509,257.77l14.07-15.4,7.81,7.14-35.68,39-7.8-7.13,14.86-16.26-13.44-12.29L474,269.11,466.15,262Z"/><path class="cls-2" d="M501.41,306.32l17.1-6.46,26.58-27.46,4.11,10.85-17.63,17.33,24.68,1.35,4.1,10.85-38.11-3-17.1,6.46Z"/><path class="cls-2" d="M319.3,398.66a2.24,2.24,0,0,0,1.06-3.37l-5.31-10.16a2.25,2.25,0,0,0-3.37-1.06l-25.25,13.2a2.25,2.25,0,0,0-1.06,3.37l5.31,10.15a2.24,2.24,0,0,0,3.37,1.06l5.73-3,4.89,9.37-7.55,3.95c-5.47,2.85-11.22,1.05-14.07-4.42l-7.76-14.84c-2.85-5.47-1.05-11.22,4.42-14.07l28.9-15.1c5.47-2.86,11.22-1.06,14.07,4.41L330.44,393c2.85,5.47,1.05,11.22-4.42,14.08L318.47,411l-4.9-9.37Z"/><path class="cls-2" d="M319.79,458.27l10.83-14.73L338,406l9.34,6.88L342,437l21.45-12.3,9.34,6.88-33.63,18.2L328.3,464.54Z"/><path class="cls-2" d="M402.55,448.28a2.25,2.25,0,0,0-2-2.93l-11.25-2.19a2.25,2.25,0,0,0-2.93,2l-5.44,28a2.25,2.25,0,0,0,2,2.93l11.24,2.19a2.25,2.25,0,0,0,2.93-2l1.23-6.34,10.38,2-1.63,8.36c-1.17,6.06-6.17,9.42-12.22,8.24l-16.44-3.19c-6.05-1.18-9.42-6.17-8.24-12.23l6.22-32c1.19-6.06,6.18-9.42,12.23-8.24l16.44,3.19c6.05,1.18,9.42,6.17,8.24,12.23l-1.62,8.36-10.38-2Z"/><path class="cls-2" d="M431.79,434.47,442.34,476l21.49-5.46,2.46,9.68-31.74,8.06-13-51.25Z"/><path class="cls-2" d="M476.3,408.29l6.27,7.78-18.7,15.06,6.81,8.46,15.16-12.2,6.26,7.78L477,447.37l7.55,9.38,18.7-15.06,6.26,7.77-26.93,21.69L449.37,430Z"/><path class="cls-2" d="M504.26,383.58a2.25,2.25,0,0,0-3.33,1.18l-4.57,9.54a2.25,2.25,0,0,0,1.18,3.33l4.5,2.15c1.46.7,2.3.12,3.33-1.17l8.55-11.05c3.59-4.63,8.8-7.51,14.09-5l8.61,4.12c5.57,2.66,7.57,8.34,4.9,13.91l-7.09,14.83c-2.67,5.56-8.34,7.57-13.9,4.9l-6.1-2.91,4.44-9.27,4.23,2a2.25,2.25,0,0,0,3.33-1.18l5-10.33a2.25,2.25,0,0,0-1.17-3.33l-5-2.41c-1.46-.69-2.3-.12-3.33,1.18l-8.54,11.05c-3.6,4.62-8.8,7.51-14.1,5l-8.08-3.87c-5.56-2.66-7.57-8.34-4.91-13.9l6.73-14c2.66-5.56,8.34-7.56,13.9-4.9l5.56,2.66L508,385.36Z"/><path class="cls-2" d="M259.51,348.14c0,2.56-1.56,4.05-4.71,4.05h-6V339.65h6.05c3.12,0,4.39,1.16,4.39,3.26a2.55,2.55,0,0,1-1.5,2.45A2.79,2.79,0,0,1,259.51,348.14Zm-3.69-4.77c0-.55-.27-1-1.09-1h-2.62v2h2.62C255.53,344.36,255.82,344,255.82,343.37Zm.29,4.84a1.11,1.11,0,0,0-1.24-1.2h-2.76v2.44h2.74A1.14,1.14,0,0,0,256.11,348.21Z"/><path class="cls-2" d="M254.8,352.37h-6.21V339.46h6.24c3.08,0,4.58,1.13,4.58,3.45a2.64,2.64,0,0,1-1.31,2.43,2.94,2.94,0,0,1,1.59,2.8C259.69,350.87,258,352.37,254.8,352.37ZM249,352h5.84c3,0,4.52-1.33,4.52-3.86a2.6,2.6,0,0,0-1.68-2.61l-.34-.14.32-.19a2.38,2.38,0,0,0,1.42-2.29c0-2.1-1.34-3.08-4.21-3.08H249Zm5.89-2.37h-2.93v-2.81h3a1.29,1.29,0,0,1,1.42,1.39A1.31,1.31,0,0,1,254.85,349.63Zm-2.55-.37h2.55a1,1,0,0,0,1.07-1.05.92.92,0,0,0-1-1H252.3Zm2.43-4.72h-2.81V342.2h2.81c.82,0,1.27.42,1.27,1.17C256,343.91,255.78,344.54,254.73,344.54Zm-2.43-.37h2.43c.62,0,.9-.24.9-.8s-.29-.8-.9-.8H252.3Z"/><path class="cls-2" d="M273.81,346.83c0,4-2.38,5.55-5.54,5.55s-5.46-1.57-5.46-5.55v-7.18h3.55v7.18c0,1.54.61,2.49,2,2.49s1.93-.95,1.93-2.49v-7.18h3.55Z"/><path class="cls-2" d="M268.27,352.57c-3.64,0-5.65-2-5.65-5.74v-7.37h3.92v7.37c0,1.53.6,2.31,1.79,2.31s1.75-.76,1.75-2.31v-7.37H274v7.37C274,350.53,272,352.57,268.27,352.57ZM263,339.83v7c0,4.44,2.87,5.37,5.27,5.37,3.45,0,5.35-1.91,5.35-5.37v-7h-3.17v7c0,2.21-1.16,2.68-2.12,2.68-1.39,0-2.16-.95-2.16-2.68v-7Z"/><path class="cls-2" d="M287.52,342.68H284v9.51h-3.48v-9.51H277v-3h10.5Z"/><path class="cls-2" d="M284.19,352.37h-3.84v-9.51h-3.51v-3.4H287.7v3.4h-3.51Zm-3.47-.37h3.1v-9.51h3.51v-2.66H277.21v2.66h3.51Z"/><path class="cls-2" d="M300.78,342.68h-3.51v9.51h-3.48v-9.51h-3.51v-3h10.5Z"/><path class="cls-2" d="M297.45,352.37h-3.84v-9.51H290.1v-3.4H301v3.4h-3.52ZM294,352h3.1v-9.51h3.51v-2.66H290.47v2.66H294Z"/><path class="cls-2" d="M313.58,348.34c0,2.86-2.17,4-5.18,4a9.94,9.94,0,0,1-5.28-1.52l1.68-2.72a7.53,7.53,0,0,0,3.67,1.25c1.24,0,1.63-.21,1.63-.8s-.45-.76-2.13-1.15c-3-.7-4.48-1.52-4.48-4s1.92-4,4.95-4a8.21,8.21,0,0,1,5,1.45l-1.68,2.72a6.08,6.08,0,0,0-3.49-1.18c-1,0-1.29.33-1.29.77s.44.68,2.06,1.06C312.18,345,313.58,346,313.58,348.34Z"/><path class="cls-2" d="M308.4,352.57A10.22,10.22,0,0,1,303,351l-.15-.1,1.88-3,.16.11a7.47,7.47,0,0,0,3.57,1.22c1.34,0,1.45-.27,1.45-.62s-.33-.58-2-1c-3.07-.71-4.62-1.55-4.62-4.21s2-4.14,5.13-4.14a8.47,8.47,0,0,1,5.1,1.48l.14.1-1.88,3-.15-.11a5.86,5.86,0,0,0-3.39-1.15c-1.11,0-1.11.38-1.11.58s.28.5,1.92.88c3,.71,4.69,1.63,4.69,4.25S311.86,352.57,308.4,352.57Zm-5-1.77a9.8,9.8,0,0,0,5,1.4c2.28,0,5-.67,5-3.86,0-2.12-1.11-3.1-4.41-3.89-1.49-.35-2.2-.59-2.2-1.24,0-.85.84-.95,1.48-.95a6.15,6.15,0,0,1,3.43,1.1l1.49-2.41a8.2,8.2,0,0,0-4.74-1.31c-2.9,0-4.76,1.48-4.76,3.77s1.39,3.17,4.33,3.85c1.72.4,2.28.73,2.28,1.33,0,.82-.7,1-1.82,1a7.72,7.72,0,0,1-3.61-1.18Z"/><path class="cls-2" d="M522.49,348.14c0,2.56-1.55,4.05-4.71,4.05h-6V339.65h6.06c3.12,0,4.39,1.16,4.39,3.26a2.55,2.55,0,0,1-1.51,2.45A2.78,2.78,0,0,1,522.49,348.14Zm-3.69-4.76c0-.56-.26-1-1.09-1H515.1v2h2.61C518.52,344.36,518.8,344,518.8,343.38Zm.29,4.83a1.11,1.11,0,0,0-1.24-1.2H515.1v2.44h2.74A1.13,1.13,0,0,0,519.09,348.21Z"/><path class="cls-2" d="M517.78,352.37h-6.2V339.46h6.24c3.08,0,4.57,1.13,4.57,3.45a2.63,2.63,0,0,1-1.3,2.43,3,3,0,0,1,1.59,2.8C522.68,350.87,520.94,352.37,517.78,352.37ZM512,352h5.83c3,0,4.53-1.33,4.53-3.86a2.6,2.6,0,0,0-1.68-2.61l-.34-.14.32-.19a2.36,2.36,0,0,0,1.41-2.29c0-2.1-1.33-3.07-4.2-3.07H512Zm5.89-2.37h-2.93v-2.8h2.94a1.29,1.29,0,0,1,1.43,1.38A1.31,1.31,0,0,1,517.84,349.63Zm-2.56-.37h2.56a1,1,0,0,0,1.06-1.05.92.92,0,0,0-1-1h-2.57Zm2.43-4.71h-2.8V342.2h2.8c.83,0,1.28.42,1.28,1.18C519,343.91,518.77,344.55,517.71,344.55Zm-2.43-.38h2.43c.63,0,.91-.24.91-.79s-.29-.8-.91-.8h-2.43Z"/><path class="cls-2" d="M530,352.19h-3.55V339.65H530Z"/><path class="cls-2" d="M530.23,352.37h-3.92V339.46h3.92Zm-3.55-.37h3.18V339.84h-3.18Z"/><path class="cls-2" d="M546,352.19h-4.12l-2.61-5.34L538,348.41v3.78h-3.55V339.65H538v1.47c0,1.05,0,2.18-.06,3.1.52-.83,1.62-2.28,2.42-3.3l1-1.27h4.23l-3.78,4.42Z"/><path class="cls-2" d="M546.35,352.37h-4.54l-2.54-5.18-1.07,1.29v3.89h-3.92V339.46h3.92v1.66c0,.84,0,1.7,0,2.45.59-.85,1.43-2,2.06-2.76l1.06-1.35H546l-4,4.64ZM542,352h3.7l-4.13-7.95,3.6-4.21h-3.74l-.94,1.2c-.84,1.06-1.91,2.49-2.41,3.28l-.37.58,0-.69c0-.87.05-2,.05-3.09v-1.28h-3.17V352h3.17v-3.66l0,0,1.48-1.78Z"/><path class="cls-2" d="M559.14,352.19h-9.72V339.65H559v2.92h-6.16v1.67h3.7v2.88h-3.7v2.15h6.28Z"/><path class="cls-2" d="M559.33,352.37h-10.1V339.46h10v3.29H553v1.3h3.71v3.25H553v1.78h6.29ZM549.6,352H559v-2.55h-6.29v-2.52h3.71v-2.51h-3.71v-2h6.16v-2.54H549.6Z"/><path class="cls-2" d="M572.87,348.34c0,2.86-2.17,4.05-5.18,4.05a10,10,0,0,1-5.28-1.53l1.68-2.72a7.56,7.56,0,0,0,3.67,1.25c1.24,0,1.63-.21,1.63-.8s-.44-.75-2.13-1.15c-3-.7-4.47-1.52-4.47-4s1.91-4,4.94-4a8.26,8.26,0,0,1,5,1.45L571,343.63a6,6,0,0,0-3.49-1.19c-1,0-1.29.33-1.29.77s.45.68,2.06,1.06C571.47,345,572.87,346,572.87,348.34Z"/><path class="cls-2" d="M567.69,352.57a10.19,10.19,0,0,1-5.38-1.55l-.15-.1,1.88-3,.16.11a7.44,7.44,0,0,0,3.56,1.22c1.34,0,1.45-.27,1.45-.62s-.33-.58-2-1c-3.06-.71-4.62-1.55-4.62-4.21s2-4.14,5.13-4.14a8.47,8.47,0,0,1,5.1,1.48l.15.1-1.88,3-.16-.11a5.86,5.86,0,0,0-3.39-1.15c-1.1,0-1.1.38-1.1.58s.27.5,1.91.88c3,.71,4.7,1.63,4.7,4.25S571.15,352.57,567.69,352.57Zm-5-1.77a9.82,9.82,0,0,0,5,1.4c2.28,0,5-.67,5-3.86,0-2.12-1.11-3.1-4.4-3.89-1.5-.35-2.21-.58-2.21-1.24,0-.85.85-.95,1.48-.95a6.12,6.12,0,0,1,3.44,1.11l1.48-2.41a8.13,8.13,0,0,0-4.74-1.32c-2.89,0-4.76,1.48-4.76,3.77s1.4,3.17,4.34,3.85c1.72.4,2.27.73,2.27,1.33,0,.82-.69,1-1.82,1a7.72,7.72,0,0,1-3.61-1.18Z"/><path class="cls-3" d="M410.2,528c-101.35,0-183.81-82.46-183.81-183.82S308.85,160.36,410.2,160.36,594,242.82,594,344.17,511.56,528,410.2,528Zm0-362.68c-98.63,0-178.86,80.24-178.86,178.86S311.57,523,410.2,523,589.07,442.8,589.07,344.17,508.83,165.31,410.2,165.31Z"/><path class="cls-4" d="M380,309s30.71-11.82,56.32-3.2c23.93,8.06,33.71,37.38,22.47,60-4.89,9.86-19.26,20.14-36.17,28.73l-9.11,5a4.69,4.69,0,0,1-6.72-2.6Z"/><path class="cls-5" d="M391.85,297.37s13.74-24.88,46.94-21.22C438.79,276.15,429.67,306.6,391.85,297.37Z"/><path class="cls-2" d="M394.11,320.74a2.22,2.22,0,0,1-.37,0,2.48,2.48,0,0,1-2.09-2.82,72.33,72.33,0,0,0,.63-8.17l0-1.62c.19-6.68.33-12-4-15.66a2.48,2.48,0,0,1,3.22-3.76c6.11,5.23,5.91,12.51,5.72,19.55l0,1.61a74.19,74.19,0,0,1-.68,8.79A2.47,2.47,0,0,1,394.11,320.74Z"/><path class="cls-5" d="M402.2,307.32c-7.6-2.42-16.65-2.36-26.16,4a43.26,43.26,0,0,0-10.3,61.88c7.56,9.89,20.44,19.68,42.06,26.66,3.71,1.2,6.85-1.05,9.53-3.88C443.56,368.34,444.51,320.79,402.2,307.32Z"/></svg>